<?xml version="1.0" encoding="UTF-8"?>
<svg width="27px" height="28px" viewBox="0 0 27 28" version="1.1" xmlns="http://www.w3.org/2000/svg" xmlns:xlink="http://www.w3.org/1999/xlink">
    <!-- Generator: Sketch 60 (88103) - https://sketch.com -->
    <title>橙/活动/未选中</title>
    <desc>Created with Sketch.</desc>
    <g id="店铺装修" stroke="none" stroke-width="1" fill="none" fill-rule="evenodd">
        <g id="橙色" transform="translate(-127.000000, -621.000000)">
            <g id="编组备份-7" transform="translate(0.000000, 618.000000)">
                <g id="红/活动/未选中" transform="translate(127.000000, 3.000000)">
                    <g id="橙/活动/未选中">
                        <rect id="矩形" x="0" y="0" width="27" height="27"></rect>
                        <path d="M24.131728,3.86827202 L24.131728,12.3535534 C24.131728,12.6187699 24.0263711,12.8731238 23.8388348,13.0606602 L13.5251263,23.3743687 C13.134602,23.764893 12.501437,23.764893 12.1109127,23.3743687 L3.62563133,14.8890873 C3.23510704,14.498563 3.23510704,13.865398 3.62563133,13.4748737 L13.9393398,3.16116524 C14.1268762,2.97362886 14.3812301,2.86827202 14.6464466,2.86827202 L23.131728,2.86827202 C23.6840127,2.86827202 24.131728,3.31598727 24.131728,3.86827202 Z M18.8284271,8.17157288 C17.8521164,7.19526215 16.2692039,7.19526215 15.2928932,8.17157288 C14.3165825,9.1478836 14.3165825,10.7307961 15.2928932,11.7071068 C16.2692039,12.6834175 17.8521164,12.6834175 18.8284271,11.7071068 C19.8047379,10.7307961 19.8047379,9.1478836 18.8284271,8.17157288 Z" id="形状" fill="#CCCCCC"></path>
                    </g>
                </g>
            </g>
        </g>
    </g>
</svg>