<?xml version="1.0" encoding="UTF-8"?>
<svg width="27px" height="28px" viewBox="0 0 27 28" version="1.1" xmlns="http://www.w3.org/2000/svg" xmlns:xlink="http://www.w3.org/1999/xlink">
    <!-- Generator: Sketch 60 (88103) - https://sketch.com -->
    <title>橙/购物车/未选中</title>
    <desc>Created with Sketch.</desc>
    <g id="店铺装修" stroke="none" stroke-width="1" fill="none" fill-rule="evenodd">
        <g id="橙色" transform="translate(-221.000000, -621.000000)">
            <g id="编组备份-7" transform="translate(0.000000, 618.000000)">
                <g id="红/购物车/未选中" transform="translate(221.000000, 3.000000)">
                    <g id="橙/购物车/未选中">
                        <rect id="矩形" x="0" y="0" width="27" height="27"></rect>
                        <path d="M8.5,20.5 C9.32842712,20.5 10,21.1715729 10,22 C10,22.8284271 9.32842712,23.5 8.5,23.5 C7.67157288,23.5 7,22.8284271 7,22 C7,21.1715729 7.67157288,20.5 8.5,20.5 Z M20,20.5 C20.8284271,20.5 21.5,21.1715729 21.5,22 C21.5,22.8284271 20.8284271,23.5 20,23.5 C19.1715729,23.5 18.5,22.8284271 18.5,22 C18.5,21.1715729 19.1715729,20.5 20,20.5 Z M7,4.5 L7,7 L7,7 L23.3593884,7 C23.9116732,7 24.3593884,7.44771525 24.3593884,8 C24.3593884,8.04374457 24.3565181,8.087442 24.3507958,8.13081069 L23.0313514,18.1308107 C22.9657208,18.6282215 22.5416659,19 22.039944,19 L6.5,19 C5.94771525,19 5.5,18.5522847 5.5,18 L5.5,5 L5.5,5 L3.25,5 C2.83578644,5 2.5,4.66421356 2.5,4.25 C2.5,3.83578644 2.83578644,3.5 3.25,3.5 L6,3.5 C6.55228475,3.5 7,3.94771525 7,4.5 Z" id="形状" fill="#CCCCCC"></path>
                        <polygon id="矩形" fill="#FFFFFF" points="14 10 17 10 16 16 13 16"></polygon>
                    </g>
                </g>
            </g>
        </g>
    </g>
</svg>