<?xml version="1.0" standalone="no"?><!DOCTYPE svg PUBLIC "-//W3C//DTD SVG 1.1//EN" "http://www.w3.org/Graphics/SVG/1.1/DTD/svg11.dtd"><svg t="1590630505213" class="icon" viewBox="0 0 1024 1024" version="1.1" xmlns="http://www.w3.org/2000/svg" p-id="1380" xmlns:xlink="http://www.w3.org/1999/xlink" width="200" height="200"><defs><style type="text/css"></style></defs><path d="M0 0h1024v1024H759.58272c-18.20672-25.98912-31.8464-55.54176-54.8864-77.88544-33.54624-35.16416-80.65024-52.736-126.75072-64.512-0.22528-1.59744-0.43008-3.1744-0.65536-4.73088 3.74784-1.04448 2.92864-5.71392 2.12992-8.51968 0.06144-1.41312 0.22528-4.25984 0.3072-5.67296 3.072-2.78528 2.94912-7.10656 1.65888-10.69056l0.4096-5.71392c3.072-2.82624 2.92864-7.168 1.536-10.77248 0.12288-1.24928 0.38912-3.76832 0.512-5.03808 0.47104-3.2768 0.94208-6.57408 1.39264-9.85088 54.72256-2.53952 102.52288-38.33856 132.3008-82.45248 4.62848-8.4992 6.41024-18.18624 8.6016-27.50464 8.27392-40.0384 5.40672-81.12128 7.63904-121.67168 13.94688-9.44128 27.70944-19.33312 40.2432-30.57664-0.1024-18.04288 0.08192-36.08576-0.06144-54.12864-18.55488-10.89536-36.33152-23.10144-55.17312-33.54624-0.06144-4.52608-0.1024-9.03168-0.16384-13.53728 0.43008-51.36384-0.02048-102.72768 0.16384-154.09152 0.2048-6.69696 0.3072-13.49632-1.59744-19.98848-0.32768-4.23936-0.49152-8.47872-0.6144-12.6976 11.63264-12.34944 19.84512-27.46368 28.09856-42.16832 18.61632-35.67616 29.0816-75.24352 33.0752-115.2-42.88512-0.22528-85.8112 0.57344-128.67584-1.29024-70.26688-0.94208-140.55424-1.37216-210.8416-0.65536-66.00704 1.72032-127.42656 46.14144-153.25184 106.31168-8.72448 22.58944-12.45184 47.04256-12.43136 71.20896-1.76128 58.85952 15.19616 115.99872 30.8224 172.11392-0.1024 3.15392-0.22528 6.30784-0.34816 9.46176-17.69472 10.60864-34.44736 22.69184-52.36736 32.93184-0.63488 0.38912-1.92512 1.20832-2.58048 1.61792 0.1024 12.45184-1.47456 25.14944 1.29024 37.41696 0.24576 2.17088 0.512 4.36224 0.75776 6.5536-1.26976 2.62144-0.86016 4.93568 1.2288 6.94272 1.49504 4.25984 2.58048 9.07264 6.30784 12.02176 11.776 9.99424 25.92768 16.56832 39.85408 22.95808 0.69632 34.42688-0.77824 69.12 4.89472 103.19872 4.21888 23.67488 13.74208 47.12448 31.21152 64.12288 19.7632 19.49696 40.63232 38.72768 65.65888 51.3024 15.19616 7.63904 32.33792 12.55424 49.4592 10.89536v7.14752c-1.26976 3.62496-1.35168 7.92576 1.67936 10.79296 0.12288 2.53952 0.26624 5.09952 0.4096 7.65952-1.31072 3.60448-1.4336 7.92576 1.61792 10.752 0.14336 2.58048 0.28672 5.16096 0.45056 7.74144-0.90112 3.44064-2.17088 8.4992 1.78176 10.5472 0.12288 1.45408 0.34816 4.32128 0.45056 5.75488-24.14592 6.10304-48.16896 13.35296-70.5536 24.43264-24.00256 11.81696-45.056 29.67552-60.37504 51.63008-14.99136 21.66784-27.87328 44.70784-42.06592 66.8672-0.08192 0.12288-0.22528 0.38912-0.3072 0.512H0V0z" fill="#FFFFFF" p-id="1381"></path><path d="M284.9792 217.41568c25.82528-60.17024 87.2448-104.59136 153.25184-106.31168 70.28736-0.7168 140.57472-0.28672 210.8416 0.65536 42.86464 1.86368 85.79072 1.06496 128.67584 1.29024-3.9936 39.95648-14.45888 79.52384-33.0752 115.2-8.25344 14.70464-16.46592 29.81888-28.09856 42.16832-34.54976 32.07168-78.90944 56.09472-126.81216 57.79456-96.62464 1.69984-193.59744-22.24128-278.13888-69.14048-3.85024 67.1744-5.3248 134.4512-8.25344 201.66656-15.62624-56.1152-32.58368-113.2544-30.8224-172.11392-0.02048-24.1664 3.70688-48.61952 12.43136-71.20896m337.59232-55.7056c-28.95872 18.18624-59.78112 34.34496-93.26592 42.22976-17.8176 3.93216-36.88448 5.24288-52.736 15.1552 56.66816-1.49504 110.73536-23.9616 158.35136-53.47328 21.504-13.4144 44.4416-26.7264 58.83904-48.27136-24.65792 13.25056-47.37024 29.71648-71.18848 44.35968zM363.39712 440.91392c29.32736-16.30208 66.90816-19.23072 96.54272-2.10944 0.1024 7.22944-0.3072 14.41792-0.90112 21.62688-28.0576-7.168-58.44992-9.56416-86.20032 0.22528-3.29728-6.51264-6.57408-13.04576-9.44128-19.74272zM556.76928 439.99232c6.67648-7.70048 17.46944-9.40032 27.01312-10.99776 14.21312-2.4576 28.79488-1.69984 42.9056 1.08544 7.82336 1.65888 16.42496 4.83328 20.41856 12.32896 3.03104 5.38624 1.59744 11.73504 1.024 17.55136-30.4128-7.168-62.52544-7.55712-92.85632 0.26624-2.17088-6.5536-3.3792-14.5408 1.49504-20.23424zM604.95872 484.00384c3.21536-2.31424 7.43424-2.29376 10.09664 0.86016 5.9392 6.77888 7.59808 16.384 7.61856 25.14944-2.29376 8.76544-13.08672 9.78944-20.62336 9.48224-6.69696 0.18432-10.28096-6.94272-12.6976-12.16512-0.02048-6.00064 1.00352-12.71808 5.44768-17.16224 3.03104-2.56 6.656-4.32128 10.15808-6.16448zM409.92768 485.94944c9.56416-4.68992 20.45952 2.80576 24.02304 11.81696 3.97312 7.94624 0.7168 19.49696-8.11008 22.48704-9.728 4.28032-21.36064-2.72384-24.22784-12.47232-2.9696-7.94624 0.22528-18.3296 8.31488-21.83168z" fill="#282828" p-id="1382"></path><path d="M686.63296 717.88544c22.44608-67.93216 31.08864-139.22304 45.79328-208.95744 0.96256 26.68544 1.10592 53.37088 1.35168 80.05632-2.23232 40.5504 0.63488 81.63328-7.63904 121.67168-2.19136 9.3184-3.97312 19.00544-8.6016 27.50464-29.77792 44.11392-77.57824 79.91296-132.3008 82.45248-0.45056 3.2768-0.9216 6.57408-1.39264 9.85088 0.28672-3.60448 0.6144-7.20896 0.96256-10.81344-45.34272-0.83968-90.76736-1.92512-136.06912 0.512-17.12128 1.65888-34.26304-3.25632-49.4592-10.89536-25.02656-12.57472-45.89568-31.80544-65.65888-51.3024-17.46944-16.9984-26.99264-40.448-31.21152-64.12288-5.67296-34.07872-4.1984-68.77184-4.89472-103.19872 1.1264-22.81472 1.2288-45.75232 4.38272-68.42368 6.90176 64.79872 10.77248 131.50208 36.63872 192.18432 26.39872 1.06496 52.81792 1.88416 79.23712 2.17088 7.0656-14.06976 10.87488-31.41632 24.71936-40.71424 17.55136-9.09312 37.9904-7.72096 57.1392-8.25344 25.47712 0.26624 51.34336-1.86368 76.47232 3.44064 6.10304 1.47456 13.06624 2.47808 17.28512 7.65952 10.67008 11.44832 15.6672 26.60352 23.01952 40.1408 23.40864-0.47104 46.81728-0.77824 70.22592-0.96256m-232.20224 11.69408c24.6784 26.25536 72.0896 28.32384 95.78496-0.28672-8.04864 2.33472-15.9744 5.18144-24.22784 6.656-23.90016 4.7104-48.72192 1.67936-71.55712-6.36928z" fill="#282828" p-id="1383"></path><path d="M622.57152 161.71008c23.81824-14.6432 46.53056-31.10912 71.18848-44.35968-14.39744 21.54496-37.33504 34.85696-58.83904 48.27136-47.616 29.51168-101.6832 51.97824-158.35136 53.47328 15.85152-9.91232 34.9184-11.22304 52.736-15.1552 33.4848-7.8848 64.3072-24.04352 93.26592-42.22976zM717.18912 283.11552c1.90464 6.49216 1.80224 13.29152 1.59744 19.98848-0.18432 51.36384 0.26624 102.72768-0.16384 154.09152-1.88416-51.36384-0.04096-102.76864-1.35168-154.13248-0.2048-6.656-0.18432-13.312-0.08192-19.94752zM248.07424 504.75008c0.65536-0.4096 1.9456-1.2288 2.58048-1.61792-2.23232 12.9024-0.73728 26.03008-1.29024 39.03488-2.7648-12.26752-1.18784-24.96512-1.29024-37.41696zM250.12224 548.72064c2.21184 1.98656 2.64192 4.3008 1.2288 6.94272-2.08896-2.00704-2.49856-4.32128-1.2288-6.94272zM448.73728 827.31008c2.23232 3.15392 2.90816 7.0656 1.67936 10.79296-3.03104-2.8672-2.94912-7.168-1.67936-10.79296zM581.79584 846.27456c-1.24928-3.6864-0.55296-7.55712 1.536-10.77248 1.39264 3.60448 1.536 7.94624-1.536 10.77248zM450.82624 845.76256c2.17088 3.1744 2.8672 7.0656 1.61792 10.752-3.05152-2.82624-2.92864-7.14752-1.61792-10.752zM579.72736 862.67904c-1.24928-3.6864-0.53248-7.55712 1.65888-10.69056 1.29024 3.584 1.41312 7.90528-1.65888 10.69056zM452.89472 864.256c1.90464 3.1744 2.72384 6.88128 1.78176 10.5472-3.95264-2.048-2.68288-7.10656-1.78176-10.5472zM577.29024 876.87168c-0.96256-3.05152 0.34816-6.10304 2.12992-8.51968 0.79872 2.80576 1.61792 7.4752-2.12992 8.51968zM281.82528 1024c0.08192-0.12288 0.22528-0.38912 0.3072-0.512l-0.1024 0.512h-0.2048z" fill="#A8B9BE" p-id="1384"></path><path d="M311.62368 259.072c84.54144 46.8992 181.51424 70.84032 278.13888 69.14048 47.90272-1.69984 92.2624-25.72288 126.81216-57.79456 0.12288 4.21888 0.28672 8.45824 0.6144 12.6976-0.1024 6.63552-0.12288 13.29152 0.08192 19.94752 1.31072 51.36384-0.53248 102.76864 1.35168 154.13248 0.06144 4.5056 0.1024 9.0112 0.16384 13.53728 18.8416 10.4448 36.61824 22.65088 55.17312 33.54624 0.14336 18.04288-0.04096 36.08576 0.06144 54.12864-12.53376 11.24352-26.29632 21.13536-40.2432 30.57664-0.24576-26.68544-0.38912-53.37088-1.35168-80.05632-14.70464 69.7344-23.3472 141.02528-45.79328 208.95744-23.40864 0.18432-46.81728 0.49152-70.22592 0.96256-7.35232-13.53728-12.34944-28.69248-23.01952-40.1408-4.21888-5.18144-11.18208-6.18496-17.28512-7.65952-25.12896-5.30432-50.9952-3.1744-76.47232-3.44064-19.1488 0.53248-39.58784-0.83968-57.1392 8.25344-13.84448 9.29792-17.65376 26.64448-24.71936 40.71424-26.4192-0.28672-52.8384-1.10592-79.23712-2.17088-25.86624-60.68224-29.73696-127.3856-36.63872-192.18432-3.15392 22.67136-3.25632 45.60896-4.38272 68.42368-13.9264-6.38976-28.07808-12.96384-39.85408-22.95808-3.72736-2.94912-4.8128-7.76192-6.30784-12.02176 1.41312-2.64192 0.98304-4.95616-1.2288-6.94272-0.24576-2.19136-0.512-4.38272-0.75776-6.5536 0.55296-13.0048-0.94208-26.13248 1.29024-39.03488 17.92-10.24 34.67264-22.3232 52.36736-32.93184 0.12288-3.15392 0.24576-6.30784 0.34816-9.46176 2.92864-67.21536 4.4032-134.49216 8.25344-201.66656m51.77344 181.84192c2.8672 6.69696 6.144 13.23008 9.44128 19.74272 27.7504-9.78944 58.14272-7.39328 86.20032-0.22528 0.59392-7.20896 1.00352-14.39744 0.90112-21.62688-29.63456-17.12128-67.21536-14.19264-96.54272 2.10944m193.37216-0.9216c-4.87424 5.69344-3.66592 13.68064-1.49504 20.23424 30.33088-7.82336 62.44352-7.43424 92.85632-0.26624 0.57344-5.81632 2.00704-12.16512-1.024-17.55136-3.9936-7.49568-12.5952-10.67008-20.41856-12.32896-14.11072-2.78528-28.69248-3.54304-42.9056-1.08544-9.54368 1.59744-20.33664 3.29728-27.01312 10.99776m48.18944 44.01152c-3.50208 1.8432-7.12704 3.60448-10.15808 6.16448-4.44416 4.44416-5.46816 11.1616-5.44768 17.16224 2.41664 5.2224 6.00064 12.34944 12.6976 12.16512 7.53664 0.3072 18.3296-0.7168 20.62336-9.48224-0.02048-8.76544-1.67936-18.37056-7.61856-25.14944-2.6624-3.15392-6.88128-3.1744-10.09664-0.86016m-195.03104 1.9456c-8.0896 3.50208-11.28448 13.88544-8.31488 21.83168 2.8672 9.74848 14.49984 16.75264 24.22784 12.47232 8.82688-2.99008 12.0832-14.5408 8.11008-22.48704-3.56352-9.0112-14.45888-16.50688-24.02304-11.81696zM454.43072 729.57952c22.8352 8.04864 47.65696 11.07968 71.55712 6.36928 8.25344-1.47456 16.1792-4.32128 24.22784-6.656-23.69536 28.61056-71.10656 26.54208-95.78496 0.28672zM448.73728 820.16256c45.30176-2.43712 90.7264-1.35168 136.06912-0.512-0.34816 3.60448-0.67584 7.20896-0.96256 10.81344-0.12288 1.26976-0.38912 3.7888-0.512 5.03808-2.08896 3.21536-2.78528 7.08608-1.536 10.77248l-0.4096 5.71392c-2.19136 3.13344-2.90816 7.00416-1.65888 10.69056-0.08192 1.41312-0.24576 4.25984-0.3072 5.67296-1.78176 2.41664-3.09248 5.46816-2.12992 8.51968 0.22528 1.55648 0.43008 3.13344 0.65536 4.73088-7.12704 12.16512-13.16864 25.31328-23.90016 34.89792-13.14816 12.92288-33.44384 21.54496-51.56864 14.49984-22.91712-7.84384-38.99392-28.40576-47.34976-50.44224-0.1024-1.4336-0.32768-4.3008-0.45056-5.75488 0.94208-3.66592 0.12288-7.3728-1.78176-10.5472-0.16384-2.58048-0.3072-5.16096-0.45056-7.74144 1.24928-3.6864 0.55296-7.5776-1.61792-10.752-0.14336-2.56-0.28672-5.12-0.4096-7.65952 1.2288-3.72736 0.55296-7.63904-1.67936-10.79296v-7.14752z" fill="#EFB79A" p-id="1385"></path><path d="M384.57344 904.99072c22.38464-11.07968 46.40768-18.3296 70.5536-24.43264 8.35584 22.03648 24.43264 42.5984 47.34976 50.44224 18.1248 7.04512 38.42048-1.57696 51.56864-14.49984 10.73152-9.58464 16.77312-22.7328 23.90016-34.89792 46.10048 11.776 93.20448 29.34784 126.75072 64.512 23.04 22.34368 36.67968 51.89632 54.8864 77.88544H282.03008l0.1024-0.512c14.19264-22.15936 27.07456-45.19936 42.06592-66.8672 15.31904-21.95456 36.37248-39.81312 60.37504-51.63008z" fill="#D85F64" p-id="1386"></path></svg>